<mxfile host="app.diagrams.net" modified="2021-06-08T13:33:53.694Z" agent="5.0 (Macintosh; Intel Mac OS X 10_15_7) AppleWebKit/537.36 (KHTML, like Gecko) Chrome/91.0.4472.77 Safari/537.36" etag="vNwl7_5NZ8JUt2ndhgSG" version="14.7.6" type="github">
  <diagram id="qAeDvdGrrSMlWnpsMQ16" name="Page-1">
    <mxGraphModel dx="1433" dy="370" grid="1" gridSize="10" guides="1" tooltips="1" connect="1" arrows="1" fold="1" page="1" pageScale="1" pageWidth="850" pageHeight="1100" math="0" shadow="0">
      <root>
        <mxCell id="0" />
        <mxCell id="1" parent="0" />
        <mxCell id="6Z0clGAtnLCS8NKnhQEN-1" value="&lt;font style=&quot;font-size: 16px&quot;&gt;Store&lt;/font&gt;" style="rounded=0;whiteSpace=wrap;html=1;" vertex="1" parent="1">
          <mxGeometry x="290" y="220" width="120" height="60" as="geometry" />
        </mxCell>
        <mxCell id="6Z0clGAtnLCS8NKnhQEN-3" value="&lt;u&gt;number&lt;/u&gt;" style="ellipse;whiteSpace=wrap;html=1;" vertex="1" parent="1">
          <mxGeometry x="50" y="80" width="120" height="80" as="geometry" />
        </mxCell>
        <mxCell id="6Z0clGAtnLCS8NKnhQEN-4" value="phone number" style="ellipse;whiteSpace=wrap;html=1;" vertex="1" parent="1">
          <mxGeometry x="270" y="30" width="120" height="80" as="geometry" />
        </mxCell>
        <mxCell id="6Z0clGAtnLCS8NKnhQEN-5" value="street address" style="ellipse;whiteSpace=wrap;html=1;" vertex="1" parent="1">
          <mxGeometry x="450" y="50" width="120" height="80" as="geometry" />
        </mxCell>
        <mxCell id="6Z0clGAtnLCS8NKnhQEN-6" value="" style="endArrow=none;html=1;entryX=0.3;entryY=0.938;entryDx=0;entryDy=0;entryPerimeter=0;exitX=1;exitY=0;exitDx=0;exitDy=0;" edge="1" parent="1" source="6Z0clGAtnLCS8NKnhQEN-1" target="6Z0clGAtnLCS8NKnhQEN-5">
          <mxGeometry width="50" height="50" relative="1" as="geometry">
            <mxPoint x="400" y="300" as="sourcePoint" />
            <mxPoint x="450" y="250" as="targetPoint" />
          </mxGeometry>
        </mxCell>
        <mxCell id="6Z0clGAtnLCS8NKnhQEN-7" value="" style="endArrow=none;html=1;entryX=0.5;entryY=1;entryDx=0;entryDy=0;exitX=0.5;exitY=0;exitDx=0;exitDy=0;" edge="1" parent="1" source="6Z0clGAtnLCS8NKnhQEN-1" target="6Z0clGAtnLCS8NKnhQEN-4">
          <mxGeometry width="50" height="50" relative="1" as="geometry">
            <mxPoint x="320" y="190" as="sourcePoint" />
            <mxPoint x="370" y="140" as="targetPoint" />
          </mxGeometry>
        </mxCell>
        <mxCell id="6Z0clGAtnLCS8NKnhQEN-8" value="" style="endArrow=none;html=1;entryX=0.5;entryY=1;entryDx=0;entryDy=0;exitX=0;exitY=0.25;exitDx=0;exitDy=0;" edge="1" parent="1" source="6Z0clGAtnLCS8NKnhQEN-1" target="6Z0clGAtnLCS8NKnhQEN-3">
          <mxGeometry width="50" height="50" relative="1" as="geometry">
            <mxPoint x="140" y="220" as="sourcePoint" />
            <mxPoint x="190" y="170" as="targetPoint" />
          </mxGeometry>
        </mxCell>
        <mxCell id="6Z0clGAtnLCS8NKnhQEN-9" value="state" style="ellipse;whiteSpace=wrap;html=1;" vertex="1" parent="1">
          <mxGeometry x="1070" y="210" width="120" height="80" as="geometry" />
        </mxCell>
        <mxCell id="6Z0clGAtnLCS8NKnhQEN-10" value="city" style="ellipse;whiteSpace=wrap;html=1;" vertex="1" parent="1">
          <mxGeometry x="710" y="210" width="120" height="80" as="geometry" />
        </mxCell>
        <mxCell id="6Z0clGAtnLCS8NKnhQEN-11" value="&lt;br&gt;		&lt;br&gt;	&lt;br&gt;&lt;span style=&quot;font-family: &amp;#34;calibri&amp;#34; ; font-size: 11pt ; font-style: italic&quot;&gt;&lt;br&gt;Willâ€™s Grand&lt;/span&gt;&lt;br&gt;&lt;div class=&quot;page&quot; title=&quot;Page 1&quot;&gt;&lt;div class=&quot;layoutArea&quot;&gt;&lt;div class=&quot;column&quot;&gt;&lt;p&gt;&lt;span style=&quot;font-size: 11.000000pt ; font-family: &amp;#34;calibri&amp;#34; ; font-style: italic&quot;&gt;Showcase&amp;nbsp;&lt;/span&gt;&lt;/p&gt;&lt;br&gt;				&lt;/div&gt;&lt;br&gt;			&lt;/div&gt;&lt;br&gt;		&lt;/div&gt;" style="rounded=0;whiteSpace=wrap;html=1;" vertex="1" parent="1">
          <mxGeometry x="90" y="320" width="120" height="60" as="geometry" />
        </mxCell>
        <mxCell id="6Z0clGAtnLCS8NKnhQEN-12" value="located" style="rhombus;whiteSpace=wrap;html=1;" vertex="1" parent="1">
          <mxGeometry x="530" y="210" width="80" height="80" as="geometry" />
        </mxCell>
        <mxCell id="6Z0clGAtnLCS8NKnhQEN-13" value="N&lt;br&gt;" style="endArrow=none;html=1;exitX=1;exitY=0.5;exitDx=0;exitDy=0;" edge="1" parent="1" source="6Z0clGAtnLCS8NKnhQEN-1">
          <mxGeometry width="50" height="50" relative="1" as="geometry">
            <mxPoint x="520" y="300" as="sourcePoint" />
            <mxPoint x="530" y="250" as="targetPoint" />
          </mxGeometry>
        </mxCell>
        <mxCell id="6Z0clGAtnLCS8NKnhQEN-14" value="" style="endArrow=none;html=1;entryX=0;entryY=0.5;entryDx=0;entryDy=0;exitX=1;exitY=0.5;exitDx=0;exitDy=0;" edge="1" parent="1" source="6Z0clGAtnLCS8NKnhQEN-12" target="6Z0clGAtnLCS8NKnhQEN-10">
          <mxGeometry width="50" height="50" relative="1" as="geometry">
            <mxPoint x="520" y="300" as="sourcePoint" />
            <mxPoint x="570" y="250" as="targetPoint" />
          </mxGeometry>
        </mxCell>
        <mxCell id="6Z0clGAtnLCS8NKnhQEN-20" value="1&lt;br&gt;" style="edgeLabel;html=1;align=center;verticalAlign=middle;resizable=0;points=[];" vertex="1" connectable="0" parent="6Z0clGAtnLCS8NKnhQEN-14">
          <mxGeometry x="-0.14" y="-1" relative="1" as="geometry">
            <mxPoint as="offset" />
          </mxGeometry>
        </mxCell>
        <mxCell id="6Z0clGAtnLCS8NKnhQEN-15" value="located" style="rhombus;whiteSpace=wrap;html=1;" vertex="1" parent="1">
          <mxGeometry x="920" y="210" width="80" height="80" as="geometry" />
        </mxCell>
        <mxCell id="6Z0clGAtnLCS8NKnhQEN-16" value="" style="endArrow=none;html=1;exitX=1;exitY=0.5;exitDx=0;exitDy=0;" edge="1" parent="1" source="6Z0clGAtnLCS8NKnhQEN-10">
          <mxGeometry width="50" height="50" relative="1" as="geometry">
            <mxPoint x="770" y="300" as="sourcePoint" />
            <mxPoint x="920" y="250" as="targetPoint" />
          </mxGeometry>
        </mxCell>
        <mxCell id="6Z0clGAtnLCS8NKnhQEN-21" value="1" style="edgeLabel;html=1;align=center;verticalAlign=middle;resizable=0;points=[];" vertex="1" connectable="0" parent="6Z0clGAtnLCS8NKnhQEN-16">
          <mxGeometry x="-0.1556" y="-1" relative="1" as="geometry">
            <mxPoint as="offset" />
          </mxGeometry>
        </mxCell>
        <mxCell id="6Z0clGAtnLCS8NKnhQEN-18" value="1" style="endArrow=none;html=1;entryX=0;entryY=0.5;entryDx=0;entryDy=0;exitX=1;exitY=0.5;exitDx=0;exitDy=0;" edge="1" parent="1" source="6Z0clGAtnLCS8NKnhQEN-15" target="6Z0clGAtnLCS8NKnhQEN-9">
          <mxGeometry width="50" height="50" relative="1" as="geometry">
            <mxPoint x="770" y="300" as="sourcePoint" />
            <mxPoint x="820" y="250" as="targetPoint" />
          </mxGeometry>
        </mxCell>
        <mxCell id="6Z0clGAtnLCS8NKnhQEN-19" value="" style="endArrow=none;html=1;exitX=1;exitY=0.75;exitDx=0;exitDy=0;" edge="1" parent="1" source="6Z0clGAtnLCS8NKnhQEN-1">
          <mxGeometry width="50" height="50" relative="1" as="geometry">
            <mxPoint x="770" y="300" as="sourcePoint" />
            <mxPoint x="540" y="264" as="targetPoint" />
          </mxGeometry>
        </mxCell>
        <mxCell id="6Z0clGAtnLCS8NKnhQEN-22" value="&lt;font style=&quot;font-size: 16px&quot;&gt;Product&lt;/font&gt;" style="rounded=0;whiteSpace=wrap;html=1;" vertex="1" parent="1">
          <mxGeometry x="290" y="480" width="120" height="60" as="geometry" />
        </mxCell>
        <mxCell id="6Z0clGAtnLCS8NKnhQEN-23" value="&lt;u&gt;Numeric products identifier (PID)&lt;/u&gt;" style="ellipse;whiteSpace=wrap;html=1;" vertex="1" parent="1">
          <mxGeometry x="50" y="470" width="120" height="80" as="geometry" />
        </mxCell>
        <mxCell id="6Z0clGAtnLCS8NKnhQEN-24" value="" style="endArrow=none;html=1;exitX=1;exitY=0.5;exitDx=0;exitDy=0;entryX=0;entryY=0.5;entryDx=0;entryDy=0;" edge="1" parent="1" source="6Z0clGAtnLCS8NKnhQEN-23" target="6Z0clGAtnLCS8NKnhQEN-22">
          <mxGeometry width="50" height="50" relative="1" as="geometry">
            <mxPoint x="260" y="460" as="sourcePoint" />
            <mxPoint x="310" y="410" as="targetPoint" />
          </mxGeometry>
        </mxCell>
        <mxCell id="6Z0clGAtnLCS8NKnhQEN-25" value="sales" style="rhombus;whiteSpace=wrap;html=1;" vertex="1" parent="1">
          <mxGeometry x="310" y="330" width="80" height="80" as="geometry" />
        </mxCell>
        <mxCell id="6Z0clGAtnLCS8NKnhQEN-26" value="" style="endArrow=none;html=1;entryX=0.5;entryY=1;entryDx=0;entryDy=0;exitX=0.5;exitY=0;exitDx=0;exitDy=0;" edge="1" parent="1" source="6Z0clGAtnLCS8NKnhQEN-22" target="6Z0clGAtnLCS8NKnhQEN-25">
          <mxGeometry width="50" height="50" relative="1" as="geometry">
            <mxPoint x="350" y="470" as="sourcePoint" />
            <mxPoint x="310" y="400" as="targetPoint" />
          </mxGeometry>
        </mxCell>
        <mxCell id="6Z0clGAtnLCS8NKnhQEN-30" value="M" style="edgeLabel;html=1;align=center;verticalAlign=middle;resizable=0;points=[];" vertex="1" connectable="0" parent="6Z0clGAtnLCS8NKnhQEN-26">
          <mxGeometry x="0.1714" y="-2" relative="1" as="geometry">
            <mxPoint as="offset" />
          </mxGeometry>
        </mxCell>
        <mxCell id="6Z0clGAtnLCS8NKnhQEN-27" value="" style="endArrow=none;html=1;entryX=0.5;entryY=1;entryDx=0;entryDy=0;exitX=0.5;exitY=0;exitDx=0;exitDy=0;" edge="1" parent="1" source="6Z0clGAtnLCS8NKnhQEN-25" target="6Z0clGAtnLCS8NKnhQEN-1">
          <mxGeometry width="50" height="50" relative="1" as="geometry">
            <mxPoint x="330" y="340" as="sourcePoint" />
            <mxPoint x="380" y="290" as="targetPoint" />
          </mxGeometry>
        </mxCell>
        <mxCell id="6Z0clGAtnLCS8NKnhQEN-29" value="N" style="edgeLabel;html=1;align=center;verticalAlign=middle;resizable=0;points=[];" vertex="1" connectable="0" parent="6Z0clGAtnLCS8NKnhQEN-27">
          <mxGeometry x="-0.08" y="1" relative="1" as="geometry">
            <mxPoint as="offset" />
          </mxGeometry>
        </mxCell>
        <mxCell id="6Z0clGAtnLCS8NKnhQEN-31" value="name" style="ellipse;whiteSpace=wrap;html=1;" vertex="1" parent="1">
          <mxGeometry x="130" y="600" width="120" height="80" as="geometry" />
        </mxCell>
        <mxCell id="6Z0clGAtnLCS8NKnhQEN-32" value="" style="endArrow=none;html=1;exitX=1;exitY=0;exitDx=0;exitDy=0;entryX=0;entryY=1;entryDx=0;entryDy=0;" edge="1" parent="1" source="6Z0clGAtnLCS8NKnhQEN-31" target="6Z0clGAtnLCS8NKnhQEN-22">
          <mxGeometry width="50" height="50" relative="1" as="geometry">
            <mxPoint x="260" y="600" as="sourcePoint" />
            <mxPoint x="310" y="550" as="targetPoint" />
          </mxGeometry>
        </mxCell>
        <mxCell id="6Z0clGAtnLCS8NKnhQEN-33" value="" style="endArrow=none;html=1;entryX=0.425;entryY=0.913;entryDx=0;entryDy=0;entryPerimeter=0;exitX=0.45;exitY=0;exitDx=0;exitDy=0;exitPerimeter=0;" edge="1" parent="1" source="6Z0clGAtnLCS8NKnhQEN-22" target="6Z0clGAtnLCS8NKnhQEN-25">
          <mxGeometry width="50" height="50" relative="1" as="geometry">
            <mxPoint x="344" y="470" as="sourcePoint" />
            <mxPoint x="310" y="470" as="targetPoint" />
          </mxGeometry>
        </mxCell>
        <mxCell id="6Z0clGAtnLCS8NKnhQEN-34" value="" style="endArrow=none;html=1;exitX=0.413;exitY=0.063;exitDx=0;exitDy=0;exitPerimeter=0;entryX=0.45;entryY=0.983;entryDx=0;entryDy=0;entryPerimeter=0;" edge="1" parent="1" source="6Z0clGAtnLCS8NKnhQEN-25" target="6Z0clGAtnLCS8NKnhQEN-1">
          <mxGeometry width="50" height="50" relative="1" as="geometry">
            <mxPoint x="260" y="520" as="sourcePoint" />
            <mxPoint x="350" y="280" as="targetPoint" />
          </mxGeometry>
        </mxCell>
        <mxCell id="6Z0clGAtnLCS8NKnhQEN-35" value="made" style="rhombus;whiteSpace=wrap;html=1;" vertex="1" parent="1">
          <mxGeometry x="510" y="470" width="80" height="80" as="geometry" />
        </mxCell>
        <mxCell id="6Z0clGAtnLCS8NKnhQEN-36" value="manufacturer" style="rounded=0;whiteSpace=wrap;html=1;" vertex="1" parent="1">
          <mxGeometry x="700" y="480" width="120" height="60" as="geometry" />
        </mxCell>
        <mxCell id="6Z0clGAtnLCS8NKnhQEN-37" value="" style="endArrow=none;html=1;entryX=0;entryY=0.5;entryDx=0;entryDy=0;exitX=1;exitY=0.5;exitDx=0;exitDy=0;" edge="1" parent="1" source="6Z0clGAtnLCS8NKnhQEN-35" target="6Z0clGAtnLCS8NKnhQEN-36">
          <mxGeometry width="50" height="50" relative="1" as="geometry">
            <mxPoint x="590" y="520" as="sourcePoint" />
            <mxPoint x="640" y="470" as="targetPoint" />
          </mxGeometry>
        </mxCell>
        <mxCell id="6Z0clGAtnLCS8NKnhQEN-40" value="M" style="edgeLabel;html=1;align=center;verticalAlign=middle;resizable=0;points=[];" vertex="1" connectable="0" parent="6Z0clGAtnLCS8NKnhQEN-37">
          <mxGeometry x="0.0364" y="1" relative="1" as="geometry">
            <mxPoint as="offset" />
          </mxGeometry>
        </mxCell>
        <mxCell id="6Z0clGAtnLCS8NKnhQEN-38" value="" style="endArrow=none;html=1;exitX=1;exitY=0.5;exitDx=0;exitDy=0;" edge="1" parent="1" source="6Z0clGAtnLCS8NKnhQEN-22" target="6Z0clGAtnLCS8NKnhQEN-35">
          <mxGeometry width="50" height="50" relative="1" as="geometry">
            <mxPoint x="590" y="520" as="sourcePoint" />
            <mxPoint x="640" y="470" as="targetPoint" />
          </mxGeometry>
        </mxCell>
        <mxCell id="6Z0clGAtnLCS8NKnhQEN-39" value="N" style="edgeLabel;html=1;align=center;verticalAlign=middle;resizable=0;points=[];" vertex="1" connectable="0" parent="6Z0clGAtnLCS8NKnhQEN-38">
          <mxGeometry x="-0.1" relative="1" as="geometry">
            <mxPoint as="offset" />
          </mxGeometry>
        </mxCell>
        <mxCell id="6Z0clGAtnLCS8NKnhQEN-41" value="&lt;u&gt;Unique name&lt;/u&gt;" style="ellipse;whiteSpace=wrap;html=1;" vertex="1" parent="1">
          <mxGeometry x="700" y="600" width="120" height="80" as="geometry" />
        </mxCell>
        <mxCell id="6Z0clGAtnLCS8NKnhQEN-42" value="" style="endArrow=none;html=1;entryX=0.5;entryY=1;entryDx=0;entryDy=0;exitX=0.5;exitY=0;exitDx=0;exitDy=0;" edge="1" parent="1" source="6Z0clGAtnLCS8NKnhQEN-41" target="6Z0clGAtnLCS8NKnhQEN-36">
          <mxGeometry width="50" height="50" relative="1" as="geometry">
            <mxPoint x="730" y="600" as="sourcePoint" />
            <mxPoint x="780" y="550" as="targetPoint" />
          </mxGeometry>
        </mxCell>
        <mxCell id="6Z0clGAtnLCS8NKnhQEN-43" value="Assigned" style="rhombus;whiteSpace=wrap;html=1;" vertex="1" parent="1">
          <mxGeometry x="310" y="670" width="80" height="80" as="geometry" />
        </mxCell>
        <mxCell id="6Z0clGAtnLCS8NKnhQEN-44" value="" style="endArrow=none;html=1;entryX=0.5;entryY=1;entryDx=0;entryDy=0;" edge="1" parent="1" target="6Z0clGAtnLCS8NKnhQEN-22">
          <mxGeometry width="50" height="50" relative="1" as="geometry">
            <mxPoint x="350" y="670" as="sourcePoint" />
            <mxPoint x="380" y="560" as="targetPoint" />
          </mxGeometry>
        </mxCell>
        <mxCell id="6Z0clGAtnLCS8NKnhQEN-52" value="N" style="edgeLabel;html=1;align=center;verticalAlign=middle;resizable=0;points=[];" vertex="1" connectable="0" parent="6Z0clGAtnLCS8NKnhQEN-44">
          <mxGeometry x="-0.1231" relative="1" as="geometry">
            <mxPoint as="offset" />
          </mxGeometry>
        </mxCell>
        <mxCell id="6Z0clGAtnLCS8NKnhQEN-45" value="Categories" style="rounded=0;whiteSpace=wrap;html=1;" vertex="1" parent="1">
          <mxGeometry x="290" y="850" width="120" height="60" as="geometry" />
        </mxCell>
        <mxCell id="6Z0clGAtnLCS8NKnhQEN-46" value="" style="endArrow=none;html=1;entryX=0.5;entryY=1;entryDx=0;entryDy=0;exitX=0.5;exitY=0;exitDx=0;exitDy=0;" edge="1" parent="1" source="6Z0clGAtnLCS8NKnhQEN-45" target="6Z0clGAtnLCS8NKnhQEN-43">
          <mxGeometry width="50" height="50" relative="1" as="geometry">
            <mxPoint x="330" y="810" as="sourcePoint" />
            <mxPoint x="380" y="760" as="targetPoint" />
          </mxGeometry>
        </mxCell>
        <mxCell id="6Z0clGAtnLCS8NKnhQEN-53" value="M" style="edgeLabel;html=1;align=center;verticalAlign=middle;resizable=0;points=[];" vertex="1" connectable="0" parent="6Z0clGAtnLCS8NKnhQEN-46">
          <mxGeometry x="-0.12" y="1" relative="1" as="geometry">
            <mxPoint as="offset" />
          </mxGeometry>
        </mxCell>
        <mxCell id="6Z0clGAtnLCS8NKnhQEN-47" value="" style="endArrow=none;html=1;entryX=0.575;entryY=1.033;entryDx=0;entryDy=0;entryPerimeter=0;exitX=0.613;exitY=0.088;exitDx=0;exitDy=0;exitPerimeter=0;" edge="1" parent="1" source="6Z0clGAtnLCS8NKnhQEN-43" target="6Z0clGAtnLCS8NKnhQEN-22">
          <mxGeometry width="50" height="50" relative="1" as="geometry">
            <mxPoint x="340" y="620" as="sourcePoint" />
            <mxPoint x="390" y="570" as="targetPoint" />
          </mxGeometry>
        </mxCell>
        <mxCell id="6Z0clGAtnLCS8NKnhQEN-54" value="&lt;u&gt;unique name&lt;/u&gt;" style="ellipse;whiteSpace=wrap;html=1;" vertex="1" parent="1">
          <mxGeometry x="200" y="1040" width="120" height="80" as="geometry" />
        </mxCell>
        <mxCell id="6Z0clGAtnLCS8NKnhQEN-55" value="" style="endArrow=none;html=1;entryX=0.25;entryY=1;entryDx=0;entryDy=0;exitX=0.5;exitY=0;exitDx=0;exitDy=0;" edge="1" parent="1" source="6Z0clGAtnLCS8NKnhQEN-54" target="6Z0clGAtnLCS8NKnhQEN-45">
          <mxGeometry width="50" height="50" relative="1" as="geometry">
            <mxPoint x="280" y="990" as="sourcePoint" />
            <mxPoint x="330" y="940" as="targetPoint" />
          </mxGeometry>
        </mxCell>
        <mxCell id="6Z0clGAtnLCS8NKnhQEN-56" value="&amp;nbsp;price" style="rounded=0;whiteSpace=wrap;html=1;" vertex="1" parent="1">
          <mxGeometry x="590" y="740" width="120" height="60" as="geometry" />
        </mxCell>
        <mxCell id="6Z0clGAtnLCS8NKnhQEN-57" value="has" style="rhombus;whiteSpace=wrap;html=1;" vertex="1" parent="1">
          <mxGeometry x="450" y="600" width="80" height="80" as="geometry" />
        </mxCell>
        <mxCell id="6Z0clGAtnLCS8NKnhQEN-58" value="" style="endArrow=none;html=1;entryX=1;entryY=1;entryDx=0;entryDy=0;exitX=0;exitY=0;exitDx=0;exitDy=0;" edge="1" parent="1" source="6Z0clGAtnLCS8NKnhQEN-56" target="6Z0clGAtnLCS8NKnhQEN-57">
          <mxGeometry width="50" height="50" relative="1" as="geometry">
            <mxPoint x="590" y="730" as="sourcePoint" />
            <mxPoint x="640" y="680" as="targetPoint" />
          </mxGeometry>
        </mxCell>
        <mxCell id="6Z0clGAtnLCS8NKnhQEN-59" value="" style="endArrow=none;html=1;entryX=1;entryY=1;entryDx=0;entryDy=0;" edge="1" parent="1" source="6Z0clGAtnLCS8NKnhQEN-57" target="6Z0clGAtnLCS8NKnhQEN-22">
          <mxGeometry width="50" height="50" relative="1" as="geometry">
            <mxPoint x="390" y="620" as="sourcePoint" />
            <mxPoint x="440" y="570" as="targetPoint" />
          </mxGeometry>
        </mxCell>
        <mxCell id="6Z0clGAtnLCS8NKnhQEN-60" value="retail price" style="rounded=0;whiteSpace=wrap;html=1;" vertex="1" parent="1">
          <mxGeometry x="490" y="900" width="120" height="60" as="geometry" />
        </mxCell>
        <mxCell id="6Z0clGAtnLCS8NKnhQEN-61" value="on sale" style="rounded=0;whiteSpace=wrap;html=1;" vertex="1" parent="1">
          <mxGeometry x="700" y="900" width="120" height="60" as="geometry" />
        </mxCell>
        <mxCell id="6Z0clGAtnLCS8NKnhQEN-62" value="D" style="ellipse;whiteSpace=wrap;html=1;aspect=fixed;" vertex="1" parent="1">
          <mxGeometry x="635" y="830" width="30" height="30" as="geometry" />
        </mxCell>
        <mxCell id="6Z0clGAtnLCS8NKnhQEN-63" value="" style="endArrow=none;html=1;entryX=0.5;entryY=1;entryDx=0;entryDy=0;exitX=0.5;exitY=0;exitDx=0;exitDy=0;" edge="1" parent="1" source="6Z0clGAtnLCS8NKnhQEN-62" target="6Z0clGAtnLCS8NKnhQEN-56">
          <mxGeometry width="50" height="50" relative="1" as="geometry">
            <mxPoint x="640" y="850" as="sourcePoint" />
            <mxPoint x="690" y="800" as="targetPoint" />
          </mxGeometry>
        </mxCell>
        <mxCell id="6Z0clGAtnLCS8NKnhQEN-64" value="" style="endArrow=none;html=1;entryX=0;entryY=1;entryDx=0;entryDy=0;exitX=0.5;exitY=0;exitDx=0;exitDy=0;" edge="1" parent="1" source="6Z0clGAtnLCS8NKnhQEN-60" target="6Z0clGAtnLCS8NKnhQEN-62">
          <mxGeometry width="50" height="50" relative="1" as="geometry">
            <mxPoint x="550" y="920" as="sourcePoint" />
            <mxPoint x="600" y="870" as="targetPoint" />
          </mxGeometry>
        </mxCell>
        <mxCell id="6Z0clGAtnLCS8NKnhQEN-65" value="" style="endArrow=none;html=1;entryX=1;entryY=1;entryDx=0;entryDy=0;exitX=0.5;exitY=0;exitDx=0;exitDy=0;" edge="1" parent="1" source="6Z0clGAtnLCS8NKnhQEN-61" target="6Z0clGAtnLCS8NKnhQEN-62">
          <mxGeometry width="50" height="50" relative="1" as="geometry">
            <mxPoint x="690" y="900" as="sourcePoint" />
            <mxPoint x="740" y="850" as="targetPoint" />
          </mxGeometry>
        </mxCell>
        <mxCell id="6Z0clGAtnLCS8NKnhQEN-66" value="discount date" style="ellipse;whiteSpace=wrap;html=1;" vertex="1" parent="1">
          <mxGeometry x="700" y="1020" width="120" height="80" as="geometry" />
        </mxCell>
        <mxCell id="6Z0clGAtnLCS8NKnhQEN-67" value="discounted price" style="ellipse;whiteSpace=wrap;html=1;" vertex="1" parent="1">
          <mxGeometry x="700" y="1150" width="120" height="80" as="geometry" />
        </mxCell>
        <mxCell id="6Z0clGAtnLCS8NKnhQEN-68" value="" style="endArrow=none;html=1;entryX=0.5;entryY=1;entryDx=0;entryDy=0;exitX=0.5;exitY=0;exitDx=0;exitDy=0;" edge="1" parent="1" source="6Z0clGAtnLCS8NKnhQEN-66" target="6Z0clGAtnLCS8NKnhQEN-61">
          <mxGeometry width="50" height="50" relative="1" as="geometry">
            <mxPoint x="730" y="1010" as="sourcePoint" />
            <mxPoint x="780" y="960" as="targetPoint" />
          </mxGeometry>
        </mxCell>
        <mxCell id="6Z0clGAtnLCS8NKnhQEN-69" value="" style="endArrow=none;html=1;entryX=0.5;entryY=1;entryDx=0;entryDy=0;exitX=0.5;exitY=0;exitDx=0;exitDy=0;" edge="1" parent="1" source="6Z0clGAtnLCS8NKnhQEN-67" target="6Z0clGAtnLCS8NKnhQEN-66">
          <mxGeometry width="50" height="50" relative="1" as="geometry">
            <mxPoint x="730" y="1150" as="sourcePoint" />
            <mxPoint x="780" y="1100" as="targetPoint" />
          </mxGeometry>
        </mxCell>
        <mxCell id="6Z0clGAtnLCS8NKnhQEN-71" value="sold by" style="rhombus;whiteSpace=wrap;html=1;" vertex="1" parent="1">
          <mxGeometry x="480" y="330" width="80" height="80" as="geometry" />
        </mxCell>
        <mxCell id="6Z0clGAtnLCS8NKnhQEN-72" value="" style="endArrow=none;html=1;exitX=1;exitY=0;exitDx=0;exitDy=0;" edge="1" parent="1" source="6Z0clGAtnLCS8NKnhQEN-22" target="6Z0clGAtnLCS8NKnhQEN-71">
          <mxGeometry width="50" height="50" relative="1" as="geometry">
            <mxPoint x="390" y="490" as="sourcePoint" />
            <mxPoint x="440" y="440" as="targetPoint" />
          </mxGeometry>
        </mxCell>
        <mxCell id="6Z0clGAtnLCS8NKnhQEN-73" value="" style="endArrow=none;html=1;entryX=0;entryY=0;entryDx=0;entryDy=0;exitX=1;exitY=1;exitDx=0;exitDy=0;" edge="1" parent="1" source="6Z0clGAtnLCS8NKnhQEN-1" target="6Z0clGAtnLCS8NKnhQEN-71">
          <mxGeometry width="50" height="50" relative="1" as="geometry">
            <mxPoint x="420" y="360" as="sourcePoint" />
            <mxPoint x="470" y="310" as="targetPoint" />
          </mxGeometry>
        </mxCell>
        <mxCell id="6Z0clGAtnLCS8NKnhQEN-74" value="login" style="rounded=0;whiteSpace=wrap;html=1;" vertex="1" parent="1">
          <mxGeometry x="-290" y="290" width="120" height="60" as="geometry" />
        </mxCell>
        <mxCell id="6Z0clGAtnLCS8NKnhQEN-75" value="password" style="ellipse;whiteSpace=wrap;html=1;" vertex="1" parent="1">
          <mxGeometry x="-620" y="210" width="120" height="80" as="geometry" />
        </mxCell>
        <mxCell id="6Z0clGAtnLCS8NKnhQEN-76" value="username" style="ellipse;whiteSpace=wrap;html=1;" vertex="1" parent="1">
          <mxGeometry x="-490" y="90" width="120" height="80" as="geometry" />
        </mxCell>
      </root>
    </mxGraphModel>
  </diagram>
</mxfile>
